<?xml version="1.0" encoding="UTF-8"?>
<svg id="Layer_1" data-name="Layer 1" xmlns="http://www.w3.org/2000/svg" viewBox="0 0 1600 338.8">
  <g>
    <g>
      <path d="M377.33,125.02C374.98,54.93,315.98,0,245.85,0h-14.84v83.04h16.97c36.05,0,68.65,14.75,92.12,38.54,26.07,26.43,25.94,69.51-.19,95.87-.13.14-.27.27-.4.41-7.01,7.01-14.81,13.21-23.26,18.45l-3.84,2.31-165.98,100.18h101.56c35.74,0,68.1-14.5,91.52-37.91,23.42-23.42,37.91-55.78,37.91-91.52,0-8.31-.79-16.43-2.29-24.3-1.98-10.39-1.96-21.03.01-31.41,1.76-9.23,2.53-18.82,2.2-28.64Z" fill="#fff"/>
      <path d="M37.31,217.23c-26.07-26.43-25.94-69.51.19-95.87.13-.14.27-.27.41-.41,7.01-7.01,14.81-13.21,23.26-18.45l3.84-2.31L230.99,0h-101.56C93.68,0,61.33,14.5,37.91,37.91,14.48,61.33,0,93.68,0,129.43c0,8.31.79,16.43,2.29,24.3,1.98,10.39,1.96,21.03-.01,31.41-1.76,9.24-2.53,18.82-2.2,28.64,2.35,70.09,61.35,125.02,131.48,125.02h14.84v-83.04h-16.97c-36.05,0-68.65-14.75-92.12-38.54Z" fill="#fff"/>
    </g>
    <g>
      <path d="M167.81,207.69c-1.14-1.89-3.25-6.15-5.48-6.09-2.04.07-12.56,8.51-13.01,7.9l-.39-18.5c-.99-15.25,1.38-32.29.04-47.33-.27-3.03-1.89-5.17-4.96-5.67-9.07.68-19.35-.87-28.26-.01-2.76.26-4.27,1.86-4.57,4.59-.25,2.12-.29,8.22.03,10.25.33,2.12,2.12,3.63,4.19,3.86,2.58.3,13.95-.53,15.07.34.3.23.46.59.51.96v58.29c.29,3.89-5.09,6.51-3.73,9.98.39,1.04,5.13,9.37,5.74,10.03,1.68,1.78,4.59,1.91,6.64.72,8.55-6.7,20.49-11.42,28.74-18.19,4.92-4.03,2.03-6.83-.55-11.12Z" fill="#fff"/>
      <path d="M139.79,126.81c1.05.43,2.08.26,3.07-.22,1.68-.85,8.51-6.02,9.34-7.52.98-1.74.91-3.73.12-5.52-.92-2.12-9.56-10.4-11.79-12.41-3.45-3.11-9.17-9.11-13.75-4.93-1.34,1.21-3.92,3.88-5.19,5.26-1.64,1.77-2.88,3.72-1.41,6.09,6.84,6.13,13.11,12.78,19.61,19.26Z" fill="#fff"/>
      <path d="M265.33,214.32c-.73-.51-10.45-3.67-11.36-3.69-1-.03-1.82.46-2.19,1.43-1.38,3.76-.31,11.28-4.37,13.95-2.29,1.51-11.98,2.24-12.65-1.29l.26-39.33c.44-.88,1.18-1.08,2.11-1.18,4.54-.55,15.72,2.25,16.67-3.88l.03-49.48c-.04-1.95-2.33-4.2-4.22-4.2h-11.19c1.85-3.04,3.34-6.31,5.07-9.42,1.8-3.23,5.87-8.7,6.99-11.71.96-2.55.56-4.41-1.67-5.95-1.01-.7-8.59-4.38-9.65-4.66-2.15-.56-3.77-.3-5.07,1.54-2.84,3.98-7.77,14.94-9.91,19.79-.53,1.22-2.06,4.18-1.74,5.28.57,2.03,4.83,3.45,6.09,5.13h-29.7l7.35-4.94c.79-.66,1.5-1.68,1.3-2.78-.27-1.57-4.76-8.37-5.93-10.21-1.61-2.56-4.84-8.05-6.75-10-1.96-2.03-3.94-2.17-6.48-1.09-1.24.53-7.6,4.23-8.53,5.04-.83.72-1.17,1.43-1.16,2.55.03,1.7,4.16,6.74,5.33,8.65,2.52,4.12,4.68,8.46,6.8,12.8h-17.04c-.14,0-1.73.74-2,.92-1.81,1.22-2.08,3.06-2.22,5.1-1.11,14.92.85,31.17.01,46.23-.07,1.74,2.04,5.31,3.85,5.31h13.93c1.28,0,1,5.63.91,6.78-1.12,14.08-10.32,27.69-21.74,35.47-1.78,1.22-9.3,5.01-9.72,6.41-.52,1.73.79,3.1,1.77,4.32,1.93,2.39,6.87,7.12,10.03,6.77,2.6-.27,10.1-4.94,12.44-6.65,16.24-11.7,23.61-28.14,25.55-47.77.12-1.26-.4-4.46.73-5.14.75-.44,9.22-.33,9.82.27l.36.9.09,44.66c.25,5.07,2.71,9.82,7.44,11.98,5.63,2.58,24.73,2.52,30.57.38,8.17-3.02,10.27-13.32,10.76-21.14.1-1.69.42-6.17-.98-7.12ZM187.82,167.88l-.75-1.44.39-22.57h47.85l.55.55v22.74c0,.07-.57.64-.74.73h-47.29Z" fill="#fff"/>
    </g>
  </g>
  <g>
    <path d="M491.4,77.4c-9.84,0-18.19,3.43-25.06,10.3-6.87,6.87-10.3,15.22-10.3,25.06,0,11.67,5.32,20.54,15.96,26.6,4.69,2.63,18.48,7.27,41.37,13.9,19.57,5.84,33.87,12.87,42.91,21.11,13.5,12.24,20.25,29.46,20.25,51.66s-7.67,39.88-23,55.09c-15.22,15.22-33.53,22.83-54.92,22.83h-65.39c-5.61,0-10.47-2.06-14.59-6.18-4.12-4.12-6.18-8.98-6.18-14.59v-1.03c0-5.61,2.06-10.47,6.18-14.59,4.12-4.12,8.98-6.18,14.59-6.18h67.11c9.72,0,18.08-3.43,25.06-10.3,6.86-6.87,10.3-15.22,10.3-25.06,0-11.44-5.32-20.37-15.96-26.78-5.04-2.97-18.88-8.01-41.54-15.1-19.57-6.41-33.81-13.67-42.74-21.8-13.5-12.13-20.25-28.66-20.25-49.6s7.61-39.88,22.83-55.1c15.22-15.22,33.58-22.83,55.1-22.83h46.17c5.72,0,10.64,2.06,14.76,6.18,4,4.01,6.01,8.87,6.01,14.59v1.03c0,5.61-2,10.47-6.01,14.59-4.12,4.12-9.04,6.18-14.76,6.18h-47.89Z" fill="#fff"/>
    <path d="M627,35.87c5.6,0,10.47,2,14.59,6.01,4.12,4.12,6.18,9.04,6.18,14.76v59.73c9.04-6.75,22.71-10.13,41.02-10.13,22.77,0,42.28,8.12,58.53,24.37,16.25,16.25,24.37,35.82,24.37,58.7v93.89c0,5.84-2.06,10.7-6.18,14.59-3.89,4.12-8.75,6.18-14.59,6.18h-.34c-5.72,0-10.64-2.06-14.76-6.18-4.12-3.89-6.18-8.75-6.18-14.59v-93.89c0-11.33-3.95-21-11.84-29.01-8.01-8.01-17.68-12.01-29.01-12.01s-21.17,4.01-29.18,12.01c-7.9,8.01-11.84,17.68-11.84,29.01v93.89c0,5.84-2.06,10.7-6.18,14.59-4.12,4.12-8.98,6.18-14.59,6.18h-.52c-5.61,0-10.47-2.06-14.59-6.18-4.12-3.89-6.18-8.75-6.18-14.59V56.64c0-5.72,2.06-10.64,6.18-14.76,4.12-4,8.98-6.01,14.59-6.01h.52Z" fill="#fff"/>
    <path d="M848.06,221.06c0,11.33,3.95,21,11.84,29.01,8.01,7.89,17.73,11.84,29.18,11.84s20.99-3.95,29.01-11.84c7.9-8.01,11.84-17.68,11.84-29.01v-93.88c0-5.72,2.06-10.64,6.18-14.76,4.12-4.12,9.04-6.18,14.76-6.18h.34c5.84,0,10.7,2.06,14.59,6.18,4.12,4.12,6.18,9.04,6.18,14.76v93.88c0,22.77-8.12,42.28-24.37,58.53-16.25,16.25-35.76,24.37-58.53,24.37s-42.45-8.12-58.7-24.37c-16.25-16.25-24.37-35.76-24.37-58.53v-93.88c0-5.72,2.06-10.64,6.18-14.76,4.12-4.12,8.98-6.18,14.59-6.18h.52c5.6,0,10.47,2.06,14.59,6.18,4.12,4.12,6.18,9.04,6.18,14.76v93.88Z" fill="#fff"/>
    <path d="M1100.03,106.24c27.23,0,50.52,9.67,69.86,29.01,19.34,19.34,29.01,42.62,29.01,69.86s-9.67,50.52-29.01,69.86-42.62,29.01-69.86,29.01-50.52-9.67-69.86-29.01c-19.34-19.34-29.01-42.62-29.01-69.86s9.67-50.52,29.01-69.86c19.34-19.34,42.62-29.01,69.86-29.01ZM1100.03,148.63c-15.79,0-29.24,5.55-40.34,16.65-10.98,11.1-16.48,24.54-16.48,40.33s5.49,29.07,16.48,40.16c11.1,11.1,24.55,16.65,40.34,16.65s29.06-5.55,40.16-16.65c11.1-11.1,16.65-24.48,16.65-40.16s-5.55-29.23-16.65-40.33c-11.1-11.1-24.49-16.65-40.16-16.65Z" fill="#fff"/>
    <path d="M1256.21,35.87c5.6,0,10.47,2,14.59,6.01,4.12,4.12,6.18,9.04,6.18,14.76v226.56c0,5.84-2.06,10.7-6.18,14.59-4.12,4.12-8.98,6.18-14.59,6.18h-.52c-5.61,0-10.47-2.06-14.59-6.18-4.12-3.89-6.18-8.75-6.18-14.59V56.64c0-5.72,2.06-10.64,6.18-14.76,4.12-4,8.98-6.01,14.59-6.01h.52Z" fill="#fff"/>
    <path d="M1345.64,83.93c-6.64,0-12.3-2.34-16.99-7.04-4.69-4.69-7.04-10.35-7.04-16.99s2.34-12.13,7.04-16.82,10.35-7.04,16.99-7.04,12.13,2.35,16.82,7.04c4.8,4.58,7.21,10.19,7.21,16.82s-2.4,12.42-7.21,16.99c-4.69,4.69-10.3,7.04-16.82,7.04ZM1345.81,106.24c5.84,0,10.7,2.06,14.59,6.18,4.12,4.12,6.18,9.04,6.18,14.76v156.02c0,5.84-2.06,10.7-6.18,14.59-3.89,4.12-8.75,6.18-14.59,6.18h-.34c-5.72,0-10.64-2.06-14.76-6.18-4.12-3.89-6.18-8.75-6.18-14.59V127.18c0-5.72,2.06-10.64,6.18-14.76,4.12-4.12,9.04-6.18,14.76-6.18h.34Z" fill="#fff"/>
    <path d="M1501.14,106.24c27.23,0,50.52,9.67,69.86,29.01,19.34,19.34,29.01,42.62,29.01,69.86s-9.67,50.52-29.01,69.86c-19.34,19.34-42.62,29.01-69.86,29.01s-50.52-9.67-69.86-29.01c-19.34-19.34-29.01-42.62-29.01-69.86s9.67-50.52,29.01-69.86c19.34-19.34,42.62-29.01,69.86-29.01ZM1501.14,148.63c-15.79,0-29.24,5.55-40.34,16.65-10.98,11.1-16.48,24.54-16.48,40.33s5.49,29.07,16.48,40.16c11.1,11.1,24.55,16.65,40.34,16.65s29.06-5.55,40.16-16.65c11.1-11.1,16.65-24.48,16.65-40.16s-5.55-29.23-16.65-40.33c-11.1-11.1-24.49-16.65-40.16-16.65Z" fill="#fff"/>
  </g>
</svg>